<?xml version="1.0" standalone="no"?>
<!DOCTYPE svg PUBLIC "-//W3C//DTD SVG 20010904//EN"
 "http://www.w3.org/TR/2001/REC-SVG-20010904/DTD/svg10.dtd">
<svg version="1.0" xmlns="http://www.w3.org/2000/svg"
 width="640.000000pt" height="640.000000pt" viewBox="0 0 640.000000 640.000000"
 preserveAspectRatio="xMidYMid meet">
<metadata>
Created by potrace 1.11, written by Peter Selinger 2001-2013
</metadata>
<g transform="translate(0.000000,640.000000) scale(0.100000,-0.100000)"
fill="#000000" stroke="none">
<path d="M3147 5994 c-1 -1 -54 -4 -117 -8 -63 -3 -128 -8 -145 -10 -16 -2
-50 -7 -75 -10 -69 -9 -110 -16 -165 -28 -27 -6 -59 -12 -70 -14 -11 -2 -36
-8 -55 -14 -19 -6 -48 -14 -64 -17 -36 -6 -274 -88 -336 -115 -102 -45 -278
-133 -328 -165 -29 -18 -55 -33 -57 -33 -3 0 -41 -25 -85 -55 -44 -30 -84 -55
-89 -55 -5 0 -11 -7 -15 -15 -3 -8 -12 -15 -21 -15 -8 0 -15 -4 -15 -8 0 -4
-24 -26 -52 -47 -68 -51 -70 -53 -121 -100 -108 -99 -166 -157 -217 -215 -30
-35 -60 -68 -65 -74 -6 -6 -33 -40 -60 -76 -27 -36 -52 -67 -55 -70 -3 -3 -32
-45 -65 -95 -32 -49 -64 -93 -70 -97 -5 -4 -6 -8 -2 -8 5 0 0 -12 -11 -27 -11
-16 -34 -57 -53 -93 -18 -36 -37 -68 -42 -71 -5 -3 -9 -10 -9 -15 -1 -12 -10
-36 -44 -109 -15 -33 -27 -63 -26 -67 1 -5 -3 -8 -10 -8 -6 0 -8 -3 -5 -7 4
-3 2 -12 -4 -20 -6 -7 -8 -13 -4 -13 4 0 3 -6 -2 -12 -9 -12 -74 -196 -79
-224 -1 -6 -9 -36 -17 -65 -14 -49 -38 -166 -52 -246 -3 -18 -7 -45 -10 -60
-32 -200 -40 -538 -16 -718 6 -44 13 -100 16 -125 11 -95 77 -365 109 -450 8
-19 14 -38 15 -43 0 -4 8 -23 16 -43 8 -20 15 -42 15 -50 0 -7 4 -15 9 -18 5
-3 12 -18 16 -33 12 -49 144 -307 212 -415 129 -205 215 -313 397 -498 67 -69
127 -127 132 -129 5 -2 33 -24 62 -50 30 -25 91 -72 135 -104 45 -32 90 -64
100 -72 9 -8 19 -15 21 -15 6 0 109 -63 116 -71 22 -25 384 -190 490 -223 30
-10 62 -20 70 -23 19 -7 14 -6 138 -38 139 -35 237 -55 297 -61 28 -3 55 -7
62 -9 73 -25 543 -25 711 -1 18 3 52 8 75 11 57 9 169 32 242 51 33 9 71 18
85 21 37 6 251 78 307 103 87 39 248 115 253 120 3 3 23 14 45 25 22 11 42 23
45 26 3 3 30 20 60 37 78 46 91 55 114 74 11 10 28 20 38 24 10 3 18 10 18 15
0 5 5 9 11 9 6 0 16 6 23 12 7 7 25 22 40 33 104 76 301 262 401 380 28 32 58
67 68 77 9 10 17 20 17 23 0 5 25 37 48 60 6 8 12 18 12 23 0 6 3 12 8 14 21
9 150 219 224 363 144 283 226 549 282 915 25 161 26 617 1 692 -2 7 -6 37
-10 67 -3 30 -8 64 -10 75 -3 12 -7 32 -9 46 -10 56 -26 127 -35 158 -5 17 -8
32 -5 32 3 0 0 8 -5 18 -6 11 -12 30 -15 43 -9 52 -89 269 -138 377 -28 62
-80 164 -115 225 -34 61 -63 114 -63 118 0 4 -3 9 -7 11 -5 2 -21 23 -37 48
-81 125 -200 271 -328 403 -27 27 -48 53 -48 59 0 5 -4 7 -9 3 -5 -3 -12 4
-16 15 -3 11 -10 19 -14 17 -5 -1 -33 21 -63 48 -29 28 -68 61 -86 75 -19 14
-48 37 -65 52 -18 15 -40 30 -49 34 -10 3 -18 9 -18 12 0 4 -16 16 -35 26 -19
11 -35 23 -35 28 0 4 -6 8 -14 8 -7 0 -24 10 -38 23 -14 12 -32 23 -39 25 -8
2 -20 8 -27 14 -27 23 -350 188 -368 188 -3 0 -20 7 -37 15 -91 42 -422 139
-517 151 -19 2 -42 5 -50 7 -15 4 -72 12 -150 22 -63 9 -367 24 -373 19z m288
-188 c28 -4 68 -9 90 -11 22 -3 58 -8 80 -11 22 -4 48 -7 58 -8 9 0 17 -3 17
-6 0 -3 10 -6 23 -6 53 -4 147 -25 153 -35 3 -5 10 -7 15 -4 5 4 15 3 22 -2 6
-4 21 -9 32 -10 27 -4 179 -55 185 -62 3 -3 14 -7 24 -9 10 -2 42 -14 70 -26
28 -13 56 -24 61 -26 26 -8 131 -65 137 -74 4 -6 8 -7 8 -3 0 16 310 -174 318
-194 2 -5 8 -9 14 -9 19 0 259 -205 251 -214 -4 -3 -1 -6 4 -6 6 0 36 -25 67
-55 30 -30 54 -55 53 -55 -2 0 19 -24 46 -52 155 -165 346 -467 441 -698 15
-36 33 -78 40 -95 22 -50 73 -213 99 -320 22 -88 32 -138 52 -260 19 -115 25
-413 13 -580 -23 -298 -119 -644 -256 -922 -63 -128 -168 -304 -184 -311 -4
-2 -8 -10 -8 -18 0 -8 -4 -14 -10 -14 -5 0 -10 -5 -10 -10 0 -11 -10 -24 -42
-61 -10 -10 -18 -22 -18 -26 0 -5 -18 -28 -40 -53 -21 -25 -59 -67 -82 -94
-72 -82 -224 -229 -290 -281 -7 -6 -36 -29 -64 -53 -27 -23 -55 -42 -61 -42
-6 0 -13 -7 -17 -15 -3 -8 -12 -15 -21 -15 -8 0 -15 -4 -15 -9 0 -5 -9 -13
-20 -16 -11 -3 -26 -12 -33 -19 -28 -28 -257 -162 -257 -150 0 3 -7 -2 -16
-10 -8 -9 -20 -14 -25 -11 -5 4 -9 2 -9 -3 0 -5 -8 -12 -17 -15 -10 -3 -67
-26 -128 -52 -60 -25 -116 -47 -125 -49 -8 -2 -23 -6 -32 -10 -9 -4 -22 -8
-30 -10 -7 -1 -17 -4 -23 -8 -18 -10 -258 -67 -350 -82 -158 -26 -186 -28
-390 -31 -228 -3 -335 6 -540 46 -119 24 -218 50 -340 91 -106 35 -279 108
-283 120 -2 4 -7 6 -12 3 -5 -3 -14 0 -22 7 -7 7 -18 14 -23 15 -12 2 -178 94
-185 102 -3 3 -16 12 -30 19 -32 17 -192 131 -243 174 -111 93 -148 127 -217
198 -158 162 -256 287 -371 472 -59 95 -166 299 -174 333 -1 6 -10 28 -19 49
-68 154 -148 453 -172 646 -20 164 -25 463 -10 605 5 51 17 134 22 160 3 11 7
36 10 55 8 49 42 186 61 240 8 25 16 53 18 63 2 9 7 22 10 27 4 6 8 21 11 34
2 13 11 41 21 62 9 22 17 44 19 50 1 5 13 36 28 67 14 32 26 62 26 67 0 6 5
10 12 10 6 0 8 3 5 6 -7 7 91 197 105 202 4 2 6 8 2 13 -3 5 0 9 5 9 6 0 11 5
11 11 0 12 79 137 116 184 14 17 28 35 32 40 56 77 96 125 105 125 6 0 7 3 4
7 -9 8 267 283 284 283 7 0 10 3 6 6 -3 4 22 27 56 52 34 25 64 48 67 52 18
24 304 207 333 213 7 1 14 5 17 8 10 13 209 103 315 142 107 40 343 109 362
106 5 -1 11 0 16 1 40 13 192 36 302 46 39 3 71 7 72 8 5 4 343 -3 388 -8z"/>
<path d="M2343 4589 c-36 -13 -63 -65 -52 -101 5 -21 142 -164 429 -451 232
-232 425 -426 430 -433 7 -7 -45 -64 -155 -174 l-166 -163 -209 209 c-116 115
-217 212 -225 217 -9 4 -12 14 -9 20 4 7 4 9 -1 5 -4 -4 -20 1 -34 11 -68 49
-185 93 -306 116 -35 7 -221 8 -251 1 -96 -20 -168 -43 -216 -67 -32 -16 -58
-25 -58 -21 0 4 -4 2 -8 -4 -11 -18 -100 -83 -106 -78 -3 2 -4 1 -1 -2 2 -4
-16 -29 -40 -57 -24 -28 -56 -77 -72 -109 -15 -32 -30 -58 -33 -58 -4 0 -7 -6
-7 -12 -1 -7 -12 -56 -26 -107 -36 -138 -31 -282 17 -456 1 -5 13 -32 26 -60
101 -213 283 -344 530 -380 41 -7 204 -6 240 0 60 10 88 17 135 32 51 16 146
60 155 72 3 4 18 15 34 25 29 18 169 152 371 355 l94 93 166 -163 165 -164
-439 -440 c-241 -242 -441 -449 -445 -460 -9 -31 8 -77 36 -98 58 -43 58 -43
534 433 l439 439 206 -205 c179 -178 211 -206 240 -209 19 -1 42 1 51 6 25 13
51 67 44 93 -3 11 -6 24 -7 28 0 3 -93 97 -205 209 l-204 203 167 167 c106
105 171 163 175 155 4 -6 8 -7 8 -1 0 7 3 7 8 0 10 -14 76 -48 142 -73 182
-70 453 -62 617 18 23 11 47 20 53 20 5 0 10 3 10 8 0 6 39 32 67 44 11 5 74
71 107 112 42 52 114 200 122 251 1 11 7 43 13 70 11 53 8 260 -4 310 -4 17
-9 37 -10 45 -3 17 -9 33 -41 108 -13 28 -20 52 -16 52 4 0 2 4 -3 8 -6 4 -21
21 -32 38 l-22 30 204 204 c113 113 208 216 213 230 23 66 -41 133 -105 110
-15 -6 -121 -104 -234 -217 l-207 -205 -21 21 c-11 11 -23 21 -25 21 -2 0 -34
14 -72 32 -38 17 -76 33 -84 34 -8 2 -44 9 -80 18 -161 37 -365 10 -525 -70
-73 -35 -101 -60 -315 -271 l-236 -232 -424 425 c-234 234 -433 430 -443 435
-27 15 -49 18 -74 8z m1937 -464 c71 -8 82 -11 138 -29 28 -10 52 -22 52 -27
0 -6 3 -8 8 -5 4 2 15 -1 24 -8 15 -11 -30 -59 -372 -401 l-389 -388 -165 164
-166 164 203 203 c199 201 272 266 287 257 4 -3 10 1 13 9 11 28 240 80 307
69 8 -1 35 -5 60 -8z m394 -259 c41 -83 58 -161 58 -266 1 -166 -44 -290 -140
-386 -89 -90 -195 -138 -333 -150 -114 -9 -329 29 -329 59 0 4 -3 6 -8 3 -4
-2 -16 2 -26 10 -18 13 7 40 364 399 211 212 385 385 386 385 1 0 14 -24 28
-54z m-2601 -205 c31 -7 57 -17 57 -22 0 -6 4 -7 10 -4 5 3 20 0 32 -7 13 -7
25 -12 28 -13 20 -1 104 -77 289 -262 l213 -213 -223 -224 c-160 -159 -239
-231 -275 -249 -154 -78 -384 -83 -545 -14 -43 19 -122 78 -155 115 -26 31
-88 142 -78 142 4 0 2 6 -3 13 -22 28 -37 117 -37 217 0 113 19 202 57 279 22
46 122 161 138 161 6 0 19 8 29 18 24 22 130 61 196 71 67 10 197 6 267 -8z
m1247 -225 c0 5 4 3 9 -5 5 -7 71 -76 146 -153 l138 -138 -164 -164 -164 -164
-163 165 -164 165 164 164 c162 164 163 165 181 143 9 -12 17 -17 17 -13z"/>
</g>
</svg>
