<?xml version="1.0" standalone="no"?>
<!DOCTYPE svg PUBLIC "-//W3C//DTD SVG 20010904//EN"
 "http://www.w3.org/TR/2001/REC-SVG-20010904/DTD/svg10.dtd">
<svg version="1.0" xmlns="http://www.w3.org/2000/svg"
 width="560.000000pt" height="560.000000pt" viewBox="0 0 560.000000 560.000000"
 preserveAspectRatio="xMidYMid meet">
<metadata>
Created by potrace 1.11, written by Peter Selinger 2001-2013
</metadata>
<g transform="translate(0.000000,560.000000) scale(0.100000,-0.100000)"
fill="#000000" stroke="none">
<path d="M2707 5594 c-1 -1 -47 -4 -102 -8 -55 -3 -113 -9 -130 -12 -16 -3
-48 -7 -70 -9 -22 -2 -40 -4 -40 -5 0 -1 -16 -3 -35 -6 -19 -2 -57 -9 -85 -16
-27 -6 -57 -12 -65 -13 -8 -1 -22 -5 -30 -8 -8 -3 -44 -13 -80 -22 -78 -20
-187 -53 -215 -65 -11 -5 -56 -23 -100 -40 -88 -34 -269 -121 -327 -157 -21
-13 -38 -21 -38 -18 0 3 -10 -3 -22 -15 -12 -11 -25 -20 -29 -20 -11 0 -202
-131 -238 -162 -16 -15 -32 -24 -35 -21 -3 4 -6 2 -6 -4 0 -5 -19 -24 -43 -40
-117 -86 -344 -322 -449 -468 -4 -5 -19 -24 -33 -41 -14 -18 -25 -37 -25 -42
0 -6 -6 -15 -13 -19 -7 -4 -25 -29 -40 -55 -15 -26 -34 -54 -43 -62 -8 -9 -12
-16 -8 -16 3 0 2 -6 -4 -12 -15 -19 -72 -121 -79 -140 -3 -10 -10 -18 -15 -18
-5 0 -7 -4 -3 -9 3 -5 -2 -17 -11 -25 -8 -9 -13 -16 -10 -16 4 0 -4 -19 -16
-42 -12 -24 -23 -45 -23 -48 -1 -3 -9 -23 -19 -45 -80 -179 -162 -472 -190
-680 -3 -22 -10 -78 -17 -125 -20 -149 -17 -468 5 -630 26 -188 62 -350 112
-505 170 -523 456 -944 886 -1308 37 -31 72 -57 77 -57 5 0 11 -3 13 -8 5 -12
85 -72 96 -72 6 0 12 -4 14 -9 10 -28 468 -278 482 -264 3 4 6 0 6 -7 0 -7 3
-11 6 -7 4 3 20 -1 37 -9 64 -34 345 -119 457 -140 14 -3 32 -7 40 -9 39 -11
138 -26 300 -45 74 -9 502 -6 550 3 25 5 105 17 148 23 222 28 575 143 817
267 95 48 285 161 331 196 12 9 32 23 44 31 12 8 28 21 36 28 7 6 17 12 22 12
6 0 12 3 14 8 3 6 34 33 147 127 36 30 200 195 249 251 381 432 638 1042 680
1609 14 197 3 501 -23 637 -3 12 -7 38 -10 58 -3 20 -8 47 -10 60 -3 14 -10
48 -16 75 -19 98 -90 332 -124 410 -8 17 -28 64 -46 105 -53 125 -126 263
-204 385 -48 76 -175 248 -189 257 -6 4 -8 8 -5 8 21 0 -267 291 -379 382 -42
34 -79 65 -82 68 -8 8 -67 49 -165 113 -49 33 -93 64 -96 69 -3 6 -9 9 -13 9
-17 -2 -24 1 -46 22 -14 12 -26 21 -28 19 -1 -2 -53 22 -115 52 -177 86 -448
186 -569 210 -13 2 -45 9 -73 16 -27 6 -63 13 -80 16 -16 2 -37 6 -45 7 -16 4
-78 13 -150 22 -87 12 -404 26 -413 19z m313 -188 c76 -6 164 -17 190 -22 13
-3 40 -7 58 -10 19 -2 37 -6 41 -9 4 -2 23 -7 42 -10 19 -3 47 -8 63 -11 16
-3 38 -9 48 -15 11 -6 22 -8 25 -5 3 3 18 -1 34 -10 16 -8 32 -15 36 -15 16 0
119 -31 148 -44 17 -7 55 -23 85 -35 93 -36 300 -141 300 -151 0 -6 4 -8 9 -5
15 10 367 -233 411 -283 3 -3 24 -23 47 -43 23 -20 39 -39 35 -42 -3 -3 0 -6
7 -6 14 0 111 -98 111 -113 0 -6 3 -8 6 -4 6 6 52 -44 138 -152 127 -159 279
-415 350 -591 15 -36 31 -74 36 -85 18 -39 59 -155 55 -155 -3 0 2 -17 10 -37
25 -65 69 -254 81 -347 3 -21 9 -57 13 -81 22 -118 20 -494 -4 -670 -29 -213
-98 -468 -182 -670 -37 -89 -134 -279 -144 -283 -5 -2 -9 -8 -9 -13 0 -12 -82
-143 -92 -147 -4 -2 -8 -9 -8 -15 0 -7 -11 -24 -25 -39 -14 -15 -25 -30 -25
-33 0 -4 -6 -12 -12 -20 -7 -7 -22 -25 -33 -41 -11 -15 -29 -38 -40 -50 -11
-13 -38 -44 -60 -70 -55 -65 -168 -178 -244 -244 -35 -30 -69 -61 -76 -68 -8
-6 -18 -12 -23 -12 -6 0 -12 -7 -16 -15 -3 -8 -10 -15 -16 -15 -6 0 -25 -13
-43 -30 -18 -16 -37 -30 -44 -30 -6 0 -13 -3 -15 -8 -5 -11 -145 -102 -157
-102 -6 0 -11 -3 -11 -7 0 -5 -10 -13 -23 -19 -12 -6 -71 -36 -132 -67 -113
-57 -273 -124 -312 -131 -12 -3 -30 -9 -40 -14 -41 -22 -326 -90 -448 -107
-197 -27 -572 -27 -728 0 -15 3 -55 10 -90 15 -123 22 -355 83 -437 117 -8 4
-17 7 -20 8 -22 6 -61 21 -108 43 -68 30 -61 28 -89 37 -13 4 -23 12 -23 17 0
5 -4 7 -9 3 -5 -3 -17 2 -25 11 -9 8 -16 13 -16 10 0 -8 -115 56 -245 137 -61
38 -222 161 -300 228 -102 89 -176 164 -256 259 -29 36 -56 67 -59 70 -13 12
-100 129 -100 135 0 3 -8 15 -19 26 -25 27 -163 262 -194 329 -13 30 -35 78
-47 105 -102 224 -183 546 -209 835 -8 95 -7 418 3 475 2 17 7 53 11 80 8 69
35 217 42 235 3 8 8 24 10 35 2 11 12 49 23 85 11 36 19 67 19 70 0 5 44 127
58 160 3 8 7 17 7 20 3 20 62 146 70 152 6 4 7 8 3 8 -8 0 89 190 103 200 3 3
12 20 19 38 8 17 17 32 22 32 5 0 9 5 9 11 0 11 71 119 95 142 8 9 15 18 15
22 0 6 10 19 40 54 8 9 33 39 54 66 60 75 292 304 366 360 36 27 67 52 70 55
20 26 305 207 333 213 7 1 14 5 17 8 5 6 93 49 213 103 32 14 63 26 70 26 7 0
17 4 23 9 16 15 334 108 374 109 8 1 33 5 55 11 22 6 60 13 85 17 25 3 56 7
70 10 14 2 66 7 115 10 50 4 91 7 92 8 4 3 294 -3 343 -8z"/>
<path d="M1936 4183 c-36 -19 -57 -68 -45 -102 6 -13 203 -218 440 -455 l430
-430 -165 -165 -166 -164 -214 212 c-117 117 -235 228 -261 246 -167 119 -439
160 -656 99 -30 -8 -61 -16 -69 -17 -8 -1 -17 -5 -20 -8 -3 -4 -28 -18 -56
-32 -28 -14 -72 -42 -97 -61 -26 -20 -52 -36 -58 -36 -5 0 -8 -4 -5 -8 3 -4
-10 -24 -28 -44 -47 -51 -113 -178 -133 -253 -1 -5 -7 -30 -14 -55 -14 -56
-19 -238 -7 -299 5 -25 11 -59 14 -75 2 -16 10 -38 16 -50 6 -11 11 -22 10
-23 -4 -7 34 -84 65 -132 33 -52 111 -136 159 -171 173 -127 462 -169 679 -99
39 12 73 22 78 21 4 -1 7 2 7 8 0 5 9 10 20 10 11 0 20 5 20 10 0 6 5 10 11
10 33 0 183 136 454 409 l83 84 166 -164 166 -164 -439 -440 c-291 -291 -442
-449 -446 -467 -5 -19 -1 -38 12 -60 24 -41 61 -55 100 -39 16 7 225 207 464
446 l434 434 210 -208 c218 -215 236 -227 286 -201 23 13 49 61 49 91 0 15
-64 87 -210 233 l-210 212 164 162 c90 89 171 162 179 162 8 0 18 -7 21 -16 4
-9 9 -14 13 -10 3 3 17 -1 30 -10 31 -20 149 -65 188 -71 17 -3 50 -9 75 -13
68 -13 236 -5 315 15 77 20 191 68 217 92 10 9 18 13 18 10 0 -18 112 95 157
158 25 35 73 126 73 139 0 3 5 17 11 33 7 15 13 37 15 48 1 11 7 41 12 67 32
162 -5 402 -78 518 -6 8 -14 25 -19 37 -6 11 -15 24 -21 28 -8 5 66 85 199
219 120 121 211 220 212 232 4 67 -29 108 -87 106 -35 -1 -53 -17 -247 -210
l-210 -209 -56 33 c-31 18 -74 39 -96 47 -22 8 -49 18 -60 23 -125 46 -370 43
-500 -8 -71 -27 -156 -70 -185 -93 -14 -11 -124 -118 -245 -237 l-220 -218
-435 435 c-293 292 -443 436 -460 438 -14 3 -38 -2 -54 -10z m1944 -457 c66
-6 175 -39 212 -64 l27 -18 -389 -388 -389 -389 -166 164 -165 164 208 208
c219 220 270 261 367 296 52 19 201 41 230 35 6 -2 35 -5 65 -8z m411 -295
c12 -31 22 -60 23 -66 25 -106 24 -262 -3 -350 -21 -72 -64 -146 -114 -197
-103 -104 -215 -150 -372 -152 -146 -2 -254 20 -319 63 l-30 20 385 386 c428
430 389 404 430 296z m-2610 -171 c23 -7 72 -26 108 -42 57 -27 96 -61 290
-254 l223 -223 -219 -221 c-120 -121 -224 -220 -231 -220 -7 0 -12 -4 -12 -9
0 -15 -117 -61 -190 -75 -70 -14 -235 -15 -281 -2 -193 55 -294 149 -356 329
-38 112 -37 296 3 415 41 120 145 230 264 276 106 42 296 54 401 26z m1368
-684 l-163 -165 -164 165 -165 165 164 165 164 164 164 -165 164 -164 -164
-165z"/>
</g>
</svg>
