<?xml version="1.0" standalone="no"?>
<!DOCTYPE svg PUBLIC "-//W3C//DTD SVG 20010904//EN"
 "http://www.w3.org/TR/2001/REC-SVG-20010904/DTD/svg10.dtd">
<svg version="1.0" xmlns="http://www.w3.org/2000/svg"
 width="320.000000pt" height="320.000000pt" viewBox="0 0 320.000000 320.000000"
 preserveAspectRatio="xMidYMid meet">
<metadata>
Created by potrace 1.11, written by Peter Selinger 2001-2013
</metadata>
<g transform="translate(0.000000,320.000000) scale(0.100000,-0.100000)"
fill="#000000" stroke="none">
<path d="M963 2645 c-8 -6 -17 -27 -19 -45 -4 -33 7 -45 312 -351 l316 -316
-118 -117 c-64 -64 -120 -116 -125 -116 -5 0 -81 72 -168 159 -157 156 -173
170 -259 211 -115 54 -305 63 -419 19 -16 -6 -29 -10 -31 -10 -8 3 -106 -53
-122 -69 -11 -11 -20 -18 -20 -15 0 3 -15 -12 -34 -32 -40 -45 -83 -127 -106
-203 -20 -65 -20 -236 -1 -315 35 -144 143 -268 281 -323 77 -31 100 -35 220
-34 121 0 147 3 175 19 11 6 23 11 28 12 13 1 81 35 114 57 17 11 102 92 188
178 l157 158 120 -122 121 -121 -24 -25 c-13 -15 -159 -162 -324 -328 -225
-226 -300 -307 -300 -325 1 -32 40 -62 74 -56 18 3 111 90 295 275 147 148
272 270 278 270 5 0 8 3 6 8 -5 9 49 61 56 54 4 -3 6 2 6 11 0 38 40 9 183
-133 130 -130 153 -149 176 -145 34 6 61 39 55 69 -2 13 -66 86 -149 169 -80
81 -145 150 -145 154 1 14 38 53 51 53 7 0 10 2 7 5 -7 7 125 142 135 137 4
-2 7 3 7 10 0 7 9 19 20 26 18 11 25 10 48 -6 38 -26 130 -62 158 -62 12 0 25
-3 27 -8 6 -8 152 -7 232 2 77 9 204 77 262 141 60 66 75 85 69 85 -3 0 6 23
20 50 14 28 28 63 30 78 3 15 8 36 11 47 9 27 5 214 -4 228 -4 7 -9 23 -10 37
-2 14 -20 58 -39 98 -35 72 -35 74 -17 94 10 11 76 79 147 150 94 94 130 136
132 157 4 36 -14 60 -49 67 -26 4 -43 -9 -170 -137 -155 -154 -181 -176 -192
-159 -9 14 -126 66 -175 78 -60 14 -266 6 -315 -13 -107 -41 -134 -61 -306
-232 l-176 -174 -321 320 c-327 327 -338 336 -379 306z m1452 -329 c39 -7 145
-49 145 -57 0 -6 -560 -569 -566 -569 -9 0 -234 232 -234 241 0 16 320 329
336 329 8 0 14 4 14 8 0 11 86 41 134 47 22 3 41 7 43 8 4 5 93 0 128 -7z
m273 -222 c19 -46 25 -80 26 -152 3 -137 -25 -214 -109 -297 -79 -78 -138 -98
-285 -98 -99 0 -122 4 -167 24 -29 13 -53 29 -53 35 0 15 458 474 473 474 6 0
7 3 4 6 -9 9 64 75 77 71 6 -2 21 -30 34 -63z m-1913 -115 c53 -13 135 -50
135 -61 0 -5 3 -8 8 -6 4 2 50 -41 103 -94 52 -54 94 -98 93 -98 -1 0 24 -25
56 -56 32 -30 57 -61 56 -67 -2 -10 -275 -287 -318 -322 -47 -39 -176 -73
-259 -69 -155 7 -268 77 -336 207 -26 49 -28 60 -28 182 0 120 2 134 26 185
60 125 156 192 298 206 25 2 46 6 48 8 5 5 73 -3 118 -15z m1007 -256 c65 -64
118 -120 118 -124 0 -7 -190 -200 -225 -229 -12 -10 -34 7 -130 103 -63 64
-115 121 -115 127 0 9 217 236 229 239 2 1 57 -52 123 -116z"/>
</g>
</svg>
