<?xml version="1.0" encoding="iso-8859-1"?>
<!-- Generator: Adobe Illustrator 18.1.1, SVG Export Plug-In . SVG Version: 6.00 Build 0)  -->
<svg version="1.1" id="Capa_1" xmlns="http://www.w3.org/2000/svg" xmlns:xlink="http://www.w3.org/1999/xlink" x="0px" y="0px"
	 viewBox="0 0 578.952 578.952" style="enable-background:new 0 0 578.952 578.952;" xml:space="preserve">
<g>
	<g>
		<path style="fill:#010002;" d="M484.093,342.107c0-19.176-2.449-35.902-7.344-50.184c-4.896-14.28-11.631-26.112-20.197-35.496
			c-8.568-9.384-18.666-16.32-30.293-20.808c-11.629-4.488-24.379-6.732-38.25-6.732c-11.02,0-20.605,1.326-28.768,3.978
			c-8.156,2.652-15.195,6.12-21.111,10.404s-10.914,8.874-14.994,13.77s-7.547,9.384-10.404,13.464v-35.496h-83.231
			c0.408,6.936,0.612,20.4,0.612,40.392v75.891c0,0-0.204,45.084-0.612,135.252h83.231V345.779c0-3.672,0.205-7.238,0.613-10.709
			c0.408-3.469,1.223-6.631,2.447-9.484c3.264-7.346,8.262-14.279,14.992-20.811c6.732-6.525,16.016-9.791,27.848-9.791
			c15.096,0,25.908,5.201,32.436,15.605c6.529,10.402,9.793,24.174,9.793,41.311v134.641h83.232L484.093,342.107L484.093,342.107z
			 M141.372,200.736c14.688,0,26.316-4.284,34.884-12.852c8.568-8.568,12.648-18.768,12.24-30.6c0-12.24-4.182-22.542-12.546-30.906
			c-8.364-8.364-19.686-12.546-33.966-12.546s-25.704,4.182-34.272,12.546S94.86,145.044,94.86,157.284
			c0,11.832,4.08,22.032,12.24,30.6s19.38,12.852,33.66,12.852H141.372L141.372,200.736z M182.988,235.008H99.756v251.533h83.232
			V235.008z M561.815,0c4.08,0,7.549,1.326,10.404,3.978c2.854,2.652,4.285,6.018,4.285,10.098v550.801
			c0,4.08-1.432,7.443-4.285,10.098c-2.855,2.652-6.324,3.977-10.404,3.977H17.136c-4.08,0-7.548-1.322-10.404-3.977
			s-4.284-6.018-4.284-10.098V14.076c0-4.08,1.428-7.446,4.284-10.098S13.056,0,17.136,0H561.815L561.815,0z"/>
	</g>
</g>
<g>
</g>
<g>
</g>
<g>
</g>
<g>
</g>
<g>
</g>
<g>
</g>
<g>
</g>
<g>
</g>
<g>
</g>
<g>
</g>
<g>
</g>
<g>
</g>
<g>
</g>
<g>
</g>
<g>
</g>
</svg>
